Coordinates
version=1
nRows=10
nColumns=46
inDegrees=yes

Units are S.I. units (second, meters, Newtons, ...)
Angles are in degrees.

endheader
time	pelvis_tilt	pelvis_list	pelvis_rotation	pelvis_tx	pelvis_ty	pelvis_tz	bb_angle	bb_tx	bb_ty	bb_tz	hip_flexion_r	hip_adduction_r	hip_rotation_r	knee_angle_r	knee_angle_r_beta	ankle_angle_r	subtalar_angle_r	mtp_angle_r	crank_angle_r	hip_flexion_l	hip_adduction_l	hip_rotation_l	knee_angle_l	knee_angle_l_beta	ankle_angle_l	subtalar_angle_l	mtp_angle_l	crank_angle_l	lumbar_extension	lumbar_bending	lumbar_rotation	arm_flex_r	arm_add_r	arm_rot_r	elbow_flex_r	pro_sup_r	wrist_flex_r	wrist_dev_r	arm_flex_l	arm_add_l	arm_rot_l	elbow_flex_l	pro_sup_l	wrist_flex_l	wrist_dev_l
      2.50000000	    -21.11344863	      4.98578796	      4.78406563	      0.08170848	      1.14385297	     -0.21239321	      0.00000000	      0.50000000	      0.00000000	      0.25000000	     68.74884618	     -9.69873269	      2.13474776	     81.60277475	      1.42423710	     -4.42697066	    -14.46989546	      0.00000000	      0.00000000	     79.89269648	     -5.11719451	     -6.09759119	     69.69053602	      1.21632931	     24.29322117	      8.79825738	      0.00000000	      0.00000000	    -56.06605660	     -9.15012520	     -2.35671220	     89.46224963	    -36.96264985	     37.89695817	     62.75186902	     32.09759209	      0.00000000	      0.00000000	     89.71814181	     -4.21004345	     31.08193480	     58.61673503	     25.34176331	      0.00000000	      0.00000000
      2.50500000	    -21.17152971	      4.81244528	      4.81501109	      0.08369054	      1.14380249	     -0.21334818	      0.00000000	      0.50000000	      0.00000000	      0.25000000	     69.07932484	     -9.99855881	      1.80958442	     82.59880022	      1.44162102	     -3.24096919	    -13.47563076	      0.00000000	      0.00000000	     79.32810611	     -5.00982794	     -6.00182742	     68.71309140	      1.19926968	     23.81278203	      9.00779094	      0.00000000	      0.00000000	    -56.07531050	     -9.00935351	     -1.91510227	     89.45070343	    -38.64384741	     39.28002728	     64.06632976	     32.39383462	      0.00000000	      0.00000000	     89.71936296	     -4.43547892	     32.33394843	     58.94348856	     25.30013525	      0.00000000	      0.00000000
      2.51000000	    -21.23078552	      4.53223749	      4.63888853	      0.08563747	      1.14376541	     -0.21373168	      0.00000000	      0.50000000	      0.00000000	      0.25000000	     69.42554253	     -9.92475542	      1.49673104	     83.49357521	      1.45723779	     -2.95631241	    -13.56459901	      0.00000000	      0.00000000	     78.78949337	     -5.15476754	     -5.79564594	     67.77778394	      1.18294549	     23.46517987	      9.15529090	      0.00000000	      0.00000000	    -55.98340488	     -8.89776023	     -1.57220539	     89.41949389	    -38.65323956	     39.34518003	     64.11149271	     32.40455611	      0.00000000	      0.00000000	     89.70291314	     -4.51248572	     32.32205677	     58.97258228	     25.29692340	      0.00000000	      0.00000000
      2.51500000	    -21.27841279	      4.28505605	      4.71052182	      0.08759945	      1.14382860	     -0.21473432	      0.00000000	      0.50000000	      0.00000000	      0.25000000	     69.75105696	    -10.22814164	      1.09392699	     84.44944943	      1.47392094	     -2.12334788	    -12.94303341	      0.00000000	      0.00000000	     78.24150742	     -5.00392655	     -5.57620167	     66.78941277	      1.16569516	     22.77319833	      9.21341208	      0.00000000	      0.00000000	    -55.91933585	     -8.62637231	     -1.26233812	     89.40605497	    -39.28526303	     39.91417399	     64.40153970	     32.49587376	      0.00000000	      0.00000000	     89.69713941	     -4.52019745	     32.86064318	     58.95227068	     25.27436821	      0.00000000	      0.00000000
      2.52000000	    -21.29094315	      4.02892250	      4.50827031	      0.08960441	      1.14382786	     -0.21512798	      0.00000000	      0.50000000	      0.00000000	      0.25000000	     70.10023601	    -10.12937576	      0.86414668	     85.38614727	      1.49026941	     -1.82021305	    -12.99650656	      0.00000000	      0.00000000	     77.66701208	     -5.17717684	     -5.41744391	     65.90905687	      1.15033005	     22.33136975	      9.36968644	      0.00000000	      0.00000000	    -55.84793598	     -8.53246046	     -0.92033347	     89.36871356	    -39.31630851	     40.00965078	     64.45542522	     32.51287457	      0.00000000	      0.00000000	     89.68290165	     -4.61077356	     32.89460298	     58.95723589	     25.27218688	      0.00000000	      0.00000000
      2.52500000	    -21.29857720	      3.77166389	      4.36582771	      0.09162056	      1.14387920	     -0.21564100	      0.00000000	      0.50000000	      0.00000000	      0.25000000	     70.45858649	    -10.13028237	      0.59588754	     86.32662547	      1.50668385	     -1.47506910	    -12.92401131	      0.00000000	      0.00000000	     77.09064105	     -5.27923046	     -5.21932814	     65.02578458	      1.13491404	     21.61840899	      9.56061775	      0.00000000	      0.00000000	    -55.79983338	     -8.41625674	     -0.62440532	     89.34152489	    -39.41600827	     40.13742647	     64.47830116	     32.52870127	      0.00000000	      0.00000000	     89.66614261	     -4.67604330	     33.01313436	     58.95272991	     25.27417291	      0.00000000	      0.00000000
      2.53000000	    -21.28018657	      3.58469331	      4.38878875	      0.09374724	      1.14408353	     -0.21657003	      0.00000000	      0.50000000	      0.00000000	      0.25000000	     70.77628208	    -10.41316641	      0.32860793	     87.32772608	      1.52415635	     -0.65635931	    -12.07219652	      0.00000000	      0.00000000	     76.45389000	     -5.21898703	     -5.19757732	     64.09461755	      1.11866211	     20.87431605	      9.33044326	      0.00000000	      0.00000000	    -55.77555225	     -8.27219302	     -0.12697216	     89.33459198	    -40.89184431	     41.41416983	     65.25784025	     32.84069886	      0.00000000	      0.00000000	     89.67259077	     -4.59770895	     34.24897457	     58.73660805	     25.25586883	      0.00000000	      0.00000000
      2.53500000	    -21.25474891	      3.31963436	      4.21050275	      0.09576300	      1.14419481	     -0.21704281	      0.00000000	      0.50000000	      0.00000000	      0.25000000	     71.14711720	    -10.35341009	      0.11035826	     88.28427602	      1.54085129	     -0.41506614	    -12.04018748	      0.00000000	      0.00000000	     75.85921292	     -5.37699874	     -5.03524586	     63.27487187	      1.10435485	     20.28988011	      9.48314436	      0.00000000	      0.00000000	    -55.72973673	     -8.12673718	      0.21459518	     89.30033139	    -40.87323332	     41.44294590	     65.23297829	     32.84262850	      0.00000000	      0.00000000	     89.65349591	     -4.65805192	     34.26598213	     58.70815160	     25.25173315	      0.00000000	      0.00000000
      2.54000000	    -21.15976750	      3.05204246	      4.12285505	      0.09782011	      1.14456816	     -0.21765072	      0.00000000	      0.50000000	      0.00000000	      0.25000000	     71.39233199	    -10.40727132	     -0.16365551	     89.21857890	      1.55715796	      0.02819228	    -11.72636975	      0.00000000	      0.00000000	     75.17475650	     -5.46163707	     -4.91503538	     62.40765213	      1.08921901	     19.46381527	      9.45966122	      0.00000000	      0.00000000	    -55.74665554	     -7.96194129	      0.49771718	     89.26709132	    -40.98487513	     41.52000378	     65.10174703	     32.83902571	      0.00000000	      0.00000000	     89.63982103	     -4.64254663	     34.53593914	     58.53099678	     25.23802510	      0.00000000	      0.00000000
      2.54500000	    -21.02870755	      2.86272093	      4.04504688	      0.09984719	      1.14487394	     -0.21848909	      0.00000000	      0.50000000	      0.00000000	      0.25000000	     71.69456548	    -10.55732953	     -0.30863915	     90.22139427	      1.57466039	      0.47066982	    -11.06622679	      0.00000000	      0.00000000	     74.45175818	     -5.46688498	     -4.83230199	     61.59009686	      1.07494998	     18.69339145	      9.17758941	      0.00000000	      0.00000000	    -55.74050595	     -7.80409666	      0.84050434	     89.24150047	    -41.17362631	     41.75247738	     64.89675854	     32.86408345	      0.00000000	      0.00000000	     89.63550626	     -4.56612845	     35.12423317	     58.08743774	     25.21106000	      0.00000000	      0.00000000
